<svg width="1024" height="1024" viewBox="0 0 1024 1024" xmlns="http://www.w3.org/2000/svg">
  <!-- Solid dark background, full bleed (iOS will round the corners) -->
  <rect width="1024" height="1024" fill="#0E0E0E"/>

  <!-- Subtle rounded inner border that follows iOS's squircle shape -->
  <rect x="64" y="64" width="896" height="896" rx="168" ry="168"
        fill="none" stroke="#F2EBD9" stroke-opacity="0.28" stroke-width="2.5"/>

  <!-- T glyph extracted from the original logo and contour-traced -->
  <path d="M591.36 713.68 L590.68 713.72 L590.01 713.75 L589.34 713.77 L588.67 713.78 L587.99 713.79 L587.32 713.80 L586.65 713.81 L585.98 713.81 L585.30 713.82 L584.63 713.82 L583.96 713.82 L583.29 713.83 L582.61 713.83 L581.94 713.83 L581.27 713.83 L580.60 713.83 L579.92 713.83 L579.25 713.83 L578.58 713.83 L577.91 713.83 L577.23 713.83 L576.56 713.83 L575.89 713.83 L575.22 713.83 L574.54 713.83 L573.87 713.83 L573.20 713.83 L572.53 713.83 L571.85 713.83 L571.18 713.83 L570.51 713.83 L569.84 713.83 L569.16 713.83 L568.49 713.83 L567.82 713.83 L567.15 713.83 L566.47 713.83 L565.80 713.83 L565.13 713.83 L564.46 713.83 L563.78 713.83 L563.11 713.83 L562.44 713.83 L561.77 713.83 L561.09 713.83 L560.42 713.83 L559.75 713.83 L559.08 713.83 L558.40 713.83 L557.73 713.83 L557.06 713.83 L556.39 713.83 L555.71 713.83 L555.04 713.83 L554.37 713.83 L553.70 713.83 L553.02 713.83 L552.35 713.83 L551.68 713.83 L551.01 713.83 L550.33 713.83 L549.66 713.83 L548.99 713.83 L548.32 713.83 L547.64 713.83 L546.97 713.83 L546.30 713.83 L545.63 713.83 L544.95 713.83 L544.28 713.83 L543.61 713.83 L542.94 713.83 L542.26 713.83 L541.59 713.83 L540.92 713.83 L540.25 713.83 L539.57 713.83 L538.90 713.83 L538.23 713.83 L537.56 713.83 L536.88 713.83 L536.21 713.83 L535.54 713.83 L534.87 713.83 L534.19 713.83 L533.52 713.83 L532.85 713.83 L532.18 713.83 L531.50 713.83 L530.83 713.83 L530.16 713.83 L529.49 713.83 L528.81 713.83 L528.14 713.83 L527.47 713.83 L526.80 713.83 L526.12 713.83 L525.45 713.83 L524.78 713.83 L524.11 713.83 L523.43 713.83 L522.76 713.83 L522.09 713.83 L521.42 713.83 L520.74 713.83 L520.07 713.83 L519.40 713.83 L518.73 713.83 L518.05 713.83 L517.38 713.83 L516.71 713.83 L516.04 713.83 L515.36 713.83 L514.69 713.83 L514.02 713.83 L513.35 713.83 L512.67 713.83 L512.00 713.83 L511.33 713.83 L510.65 713.83 L509.98 713.83 L509.31 713.83 L508.64 713.83 L507.96 713.83 L507.29 713.83 L506.62 713.83 L505.95 713.83 L505.27 713.83 L504.60 713.83 L503.93 713.83 L503.26 713.83 L502.58 713.83 L501.91 713.83 L501.24 713.83 L500.57 713.83 L499.89 713.83 L499.22 713.83 L498.55 713.83 L497.88 713.83 L497.20 713.83 L496.53 713.83 L495.86 713.83 L495.19 713.83 L494.51 713.83 L493.84 713.83 L493.17 713.83 L492.50 713.83 L491.82 713.83 L491.15 713.83 L490.48 713.83 L489.81 713.83 L489.13 713.83 L488.46 713.83 L487.79 713.83 L487.12 713.83 L486.44 713.83 L485.77 713.83 L485.10 713.83 L484.43 713.83 L483.75 713.83 L483.08 713.83 L482.41 713.83 L481.74 713.83 L481.06 713.83 L480.39 713.83 L479.72 713.83 L479.05 713.83 L478.37 713.83 L477.70 713.83 L477.03 713.83 L476.36 713.83 L475.68 713.83 L475.01 713.83 L474.34 713.83 L473.67 713.83 L472.99 713.83 L472.32 713.83 L471.65 713.83 L470.98 713.83 L470.30 713.83 L469.63 713.83 L468.96 713.83 L468.29 713.83 L467.61 713.83 L466.94 713.83 L466.27 713.83 L465.60 713.83 L464.92 713.83 L464.25 713.83 L463.58 713.83 L462.91 713.83 L462.23 713.83 L461.56 713.83 L460.89 713.83 L460.22 713.83 L459.54 713.83 L458.87 713.83 L458.20 713.83 L457.53 713.83 L456.85 713.83 L456.18 713.83 L455.51 713.83 L454.84 713.83 L454.16 713.83 L453.49 713.83 L452.82 713.83 L452.15 713.83 L451.47 713.83 L450.80 713.83 L450.13 713.83 L449.46 713.83 L448.78 713.83 L448.11 713.83 L447.44 713.83 L446.77 713.83 L446.09 713.83 L445.42 713.83 L444.75 713.83 L444.08 713.83 L443.40 713.83 L442.73 713.83 L442.06 713.83 L441.39 713.83 L440.71 713.83 L440.04 713.82 L439.37 713.82 L438.70 713.82 L438.02 713.82 L437.35 713.81 L436.68 713.81 L436.01 713.80 L435.33 713.79 L434.66 713.78 L433.99 713.76 L433.32 713.74 L432.64 713.70 L432.02 713.66 L432.31 713.03 L432.64 712.51 L432.98 712.10 L433.44 711.65 L433.87 711.31 L434.32 710.99 L434.91 710.64 L435.33 710.42 L436.01 710.07 L436.68 709.74 L437.35 709.46 L437.79 709.29 L438.36 709.08 L439.03 708.89 L439.70 708.75 L440.38 708.63 L441.05 708.55 L441.72 708.50 L442.39 708.47 L443.07 708.47 L443.74 708.45 L444.41 708.45 L445.08 708.45 L445.76 708.45 L446.43 708.44 L447.10 708.41 L447.77 708.38 L448.45 708.33 L449.12 708.21 L449.79 708.10 L450.41 707.95 L451.14 707.71 L451.81 707.44 L452.25 707.27 L452.82 707.05 L453.49 706.77 L453.93 706.60 L454.50 706.40 L455.17 706.20 L455.85 706.06 L456.52 705.94 L457.19 705.86 L457.86 705.81 L458.54 705.78 L459.21 705.78 L459.88 705.75 L460.55 705.72 L461.23 705.69 L461.90 705.64 L462.57 705.52 L463.24 705.41 L463.79 705.26 L464.25 705.12 L464.80 704.92 L465.26 704.75 L465.93 704.45 L466.37 704.25 L466.94 703.96 L467.61 703.65 L468.29 703.32 L468.96 702.95 L469.63 702.58 L470.22 702.23 L470.64 701.95 L471.17 701.56 L471.59 701.22 L472.23 700.55 L472.66 700.05 L472.98 699.54 L473.33 698.90 L473.62 698.20 L473.82 697.52 L473.96 696.85 L474.04 696.18 L474.12 695.51 L474.15 694.83 L474.17 694.16 L474.17 693.49 L474.17 692.82 L474.17 692.14 L474.17 691.47 L474.17 690.80 L474.17 690.13 L474.17 689.45 L474.17 688.78 L474.17 688.11 L474.17 687.44 L474.17 686.76 L474.17 686.09 L474.17 685.42 L474.17 684.75 L474.17 684.07 L474.17 683.40 L474.17 682.73 L474.17 682.06 L474.17 681.38 L474.17 680.71 L474.17 680.04 L474.17 679.37 L474.17 678.69 L474.17 678.02 L474.17 677.35 L474.17 676.68 L474.17 676.00 L474.17 675.33 L474.17 674.66 L474.17 673.99 L474.17 673.31 L474.17 672.64 L474.17 671.97 L474.17 671.30 L474.17 670.62 L474.17 669.95 L474.17 669.28 L474.17 668.61 L474.17 667.93 L474.17 667.26 L474.17 666.59 L474.17 665.92 L474.17 665.24 L474.17 664.57 L474.17 663.90 L474.17 663.23 L474.17 662.55 L474.17 661.88 L474.17 661.21 L474.17 660.54 L474.17 659.86 L474.17 659.19 L474.17 658.52 L474.17 657.85 L474.17 657.17 L474.17 656.50 L474.17 655.83 L474.17 655.15 L474.17 654.48 L474.17 653.81 L474.17 653.14 L474.17 652.46 L474.17 651.79 L474.17 651.12 L474.17 650.45 L474.17 649.77 L474.17 649.10 L474.17 648.43 L474.17 647.76 L474.17 647.08 L474.17 646.41 L474.17 645.74 L474.17 645.07 L474.17 644.39 L474.17 643.72 L474.17 643.05 L474.17 642.38 L474.17 641.70 L474.17 641.03 L474.17 640.36 L474.17 639.69 L474.17 639.01 L474.17 638.34 L474.17 637.67 L474.17 637.00 L474.17 636.32 L474.17 635.65 L474.17 634.98 L474.17 634.31 L474.17 633.63 L474.17 632.96 L474.17 632.29 L474.17 631.62 L474.17 630.94 L474.17 630.27 L474.17 629.60 L474.17 628.93 L474.17 628.25 L474.17 627.58 L474.17 626.91 L474.17 626.24 L474.17 625.56 L474.17 624.89 L474.17 624.22 L474.17 623.55 L474.17 622.87 L474.17 622.20 L474.17 621.53 L474.17 620.86 L474.17 620.18 L474.17 619.51 L474.17 618.84 L474.17 618.17 L474.17 617.49 L474.17 616.82 L474.17 616.15 L474.17 615.48 L474.17 614.80 L474.17 614.13 L474.17 613.46 L474.17 612.79 L474.17 612.11 L474.17 611.44 L474.17 610.77 L474.17 610.10 L474.17 609.42 L474.17 608.75 L474.17 608.08 L474.17 607.41 L474.17 606.73 L474.17 606.06 L474.17 605.39 L474.17 604.72 L474.17 604.04 L474.17 603.37 L474.17 602.70 L474.17 602.03 L474.17 601.35 L474.17 600.68 L474.17 600.01 L474.17 599.34 L474.17 598.66 L474.17 597.99 L474.17 597.32 L474.17 596.65 L474.17 595.97 L474.17 595.30 L474.17 594.63 L474.17 593.96 L474.17 593.28 L474.17 592.61 L474.17 591.94 L474.17 591.27 L474.17 590.59 L474.17 589.92 L474.17 589.25 L474.17 588.58 L474.17 587.90 L474.17 587.23 L474.17 586.56 L474.17 585.89 L474.17 585.21 L474.17 584.54 L474.17 583.87 L474.17 583.20 L474.17 582.52 L474.17 581.85 L474.17 581.18 L474.17 580.51 L474.17 579.83 L474.17 579.16 L474.17 578.49 L474.17 577.82 L474.17 577.14 L474.17 576.47 L474.17 575.80 L474.17 575.13 L474.17 574.45 L474.17 573.78 L474.17 573.11 L474.17 572.44 L474.17 571.76 L474.17 571.09 L474.17 570.42 L474.17 569.75 L474.17 569.07 L474.17 568.40 L474.17 567.73 L474.17 567.06 L474.17 566.38 L474.17 565.71 L474.17 565.04 L474.17 564.37 L474.17 563.69 L474.17 563.02 L474.17 562.35 L474.17 561.68 L474.17 561.00 L474.17 560.33 L474.17 559.66 L474.17 558.99 L474.17 558.31 L474.17 557.64 L474.17 556.97 L474.17 556.30 L474.17 555.62 L474.17 554.95 L474.17 554.28 L474.17 553.61 L474.17 552.93 L474.17 552.26 L474.17 551.59 L474.17 550.92 L474.17 550.24 L474.17 549.57 L474.17 548.90 L474.17 548.23 L474.17 547.55 L474.17 546.88 L474.17 546.21 L474.17 545.54 L474.17 544.86 L474.17 544.19 L474.17 543.52 L474.17 542.85 L474.17 542.17 L474.17 541.50 L474.17 540.83 L474.17 540.15 L474.17 539.48 L474.17 538.81 L474.17 538.14 L474.17 537.46 L474.17 536.79 L474.17 536.12 L474.17 535.45 L474.17 534.77 L474.17 534.10 L474.17 533.43 L474.17 532.76 L474.17 532.08 L474.17 531.41 L474.17 530.74 L474.17 530.07 L474.17 529.39 L474.17 528.72 L474.17 528.05 L474.17 527.38 L474.17 526.70 L474.17 526.03 L474.17 525.36 L474.17 524.69 L474.17 524.01 L474.17 523.34 L474.17 522.67 L474.17 522.00 L474.17 521.32 L474.17 520.65 L474.17 519.98 L474.17 519.31 L474.17 518.63 L474.17 517.96 L474.17 517.29 L474.17 516.62 L474.17 515.94 L474.17 515.27 L474.17 514.60 L474.17 513.93 L474.17 513.25 L474.17 512.58 L474.17 511.91 L474.17 511.24 L474.17 510.56 L474.17 509.89 L474.17 509.22 L474.17 508.55 L474.17 507.87 L474.17 507.20 L474.17 506.53 L474.17 505.86 L474.17 505.18 L474.17 504.51 L474.17 503.84 L474.17 503.17 L474.17 502.49 L474.17 501.82 L474.17 501.15 L474.17 500.48 L474.17 499.80 L474.17 499.13 L474.17 498.46 L474.17 497.79 L474.17 497.11 L474.17 496.44 L474.17 495.77 L474.17 495.10 L474.17 494.42 L474.17 493.75 L474.17 493.08 L474.17 492.41 L474.17 491.73 L474.17 491.06 L474.17 490.39 L474.17 489.72 L474.17 489.04 L474.17 488.37 L474.17 487.70 L474.17 487.03 L474.17 486.35 L474.17 485.68 L474.17 485.01 L474.17 484.34 L474.17 483.66 L474.17 482.99 L474.17 482.32 L474.17 481.65 L474.17 480.97 L474.17 480.30 L474.17 479.63 L474.17 478.96 L474.17 478.28 L474.17 477.61 L474.17 476.94 L474.17 476.27 L474.17 475.59 L474.17 474.92 L474.17 474.25 L474.17 473.58 L474.17 472.90 L474.17 472.23 L474.17 471.56 L474.17 470.89 L474.17 470.21 L474.17 469.54 L474.17 468.87 L474.17 468.20 L474.17 467.52 L474.17 466.85 L474.17 466.18 L474.17 465.51 L474.17 464.83 L474.17 464.16 L474.17 463.49 L474.17 462.82 L474.17 462.14 L474.17 461.47 L474.17 460.80 L474.17 460.13 L474.17 459.45 L474.17 458.78 L474.17 458.11 L474.17 457.44 L474.17 456.76 L474.17 456.09 L474.17 455.42 L474.17 454.75 L474.17 454.07 L474.17 453.40 L474.17 452.73 L474.17 452.06 L474.17 451.38 L474.17 450.71 L474.17 450.04 L474.17 449.37 L474.17 448.69 L474.17 448.02 L474.17 447.35 L474.17 446.68 L474.17 446.00 L474.17 445.33 L474.17 444.66 L474.17 443.99 L474.17 443.31 L474.17 442.64 L474.17 441.97 L474.17 441.30 L474.17 440.62 L474.17 439.95 L474.17 439.28 L474.17 438.61 L474.17 437.93 L474.17 437.26 L474.17 436.59 L474.17 435.92 L474.17 435.24 L474.17 434.57 L474.17 433.90 L474.17 433.23 L474.17 432.55 L474.17 431.88 L474.17 431.21 L474.17 430.54 L474.17 429.86 L474.17 429.19 L474.17 428.52 L474.17 427.85 L474.17 427.17 L474.17 426.50 L474.17 425.83 L474.17 425.15 L474.17 424.48 L474.17 423.81 L474.17 423.14 L474.17 422.46 L474.17 421.79 L474.17 421.12 L474.17 420.45 L474.17 419.77 L474.17 419.10 L474.17 418.43 L474.17 417.76 L474.17 417.08 L474.17 416.41 L474.17 415.74 L474.17 415.07 L474.17 414.39 L474.17 413.72 L474.17 413.05 L474.17 412.38 L474.17 411.70 L474.17 411.03 L474.17 410.36 L474.17 409.69 L474.17 409.01 L474.17 408.34 L474.17 407.67 L474.17 407.00 L474.17 406.32 L474.17 405.65 L474.17 404.98 L474.17 404.31 L474.17 403.63 L474.17 402.96 L474.17 402.29 L474.17 401.62 L474.17 400.94 L474.17 400.27 L474.17 399.60 L474.17 398.93 L474.17 398.25 L474.17 397.58 L474.17 396.91 L474.17 396.24 L474.17 395.56 L474.17 394.89 L474.17 394.22 L474.17 393.55 L474.17 392.87 L474.17 392.20 L474.17 391.53 L474.17 390.86 L474.17 390.18 L474.17 389.51 L474.17 388.84 L474.17 388.17 L474.17 387.49 L474.17 386.82 L474.17 386.15 L474.17 385.48 L474.17 384.80 L474.17 384.13 L474.17 383.46 L474.17 382.79 L474.17 382.11 L474.17 381.44 L474.17 380.77 L474.17 380.10 L474.17 379.42 L474.17 378.75 L474.17 378.08 L474.17 377.41 L474.17 376.73 L474.17 376.06 L474.17 375.39 L474.17 374.72 L474.17 374.04 L474.17 373.37 L474.17 372.70 L474.17 372.03 L474.17 371.35 L474.17 370.68 L474.17 370.01 L474.17 369.34 L474.17 368.66 L474.17 367.99 L474.17 367.32 L474.17 366.65 L474.17 365.97 L474.17 365.30 L474.17 364.63 L474.17 363.96 L474.17 363.28 L474.17 362.61 L474.17 361.94 L474.17 361.27 L474.17 360.59 L474.17 359.92 L474.17 359.25 L474.17 358.58 L474.17 357.90 L474.17 357.23 L474.17 356.56 L474.17 355.89 L474.17 355.21 L474.17 354.54 L474.17 353.87 L474.17 353.20 L474.17 352.52 L474.17 351.85 L474.17 351.18 L474.17 350.51 L474.17 349.83 L474.17 349.16 L474.17 348.49 L474.17 347.82 L474.17 347.14 L474.17 346.47 L474.17 345.80 L474.17 345.13 L474.17 344.45 L474.17 343.78 L474.17 343.11 L474.17 342.44 L474.17 341.76 L474.17 341.09 L474.17 340.42 L474.17 339.75 L474.17 339.07 L474.17 338.40 L474.17 337.73 L474.17 337.06 L474.17 336.38 L474.17 335.71 L474.17 335.04 L474.17 334.37 L474.17 333.69 L474.17 333.02 L474.17 332.35 L474.17 331.68 L474.17 331.00 L474.17 330.33 L474.17 329.66 L474.17 328.99 L474.17 328.31 L474.17 327.64 L474.17 326.97 L474.17 326.30 L474.17 325.62 L474.17 324.95 L474.17 324.28 L474.17 323.61 L474.17 322.93 L474.17 322.26 L474.17 321.59 L474.17 320.92 L474.17 320.24 L474.17 319.57 L474.17 318.90 L474.17 318.23 L474.17 317.55 L474.17 316.88 L474.17 316.21 L474.17 315.54 L474.17 314.86 L474.17 314.19 L474.17 313.52 L474.17 312.85 L474.17 312.17 L474.17 311.50 L474.17 310.83 L474.17 310.15 L474.17 309.48 L474.17 308.81 L474.17 308.14 L474.17 307.46 L474.17 306.79 L474.17 306.12 L474.17 305.45 L474.17 304.77 L474.17 304.10 L474.17 303.43 L474.17 302.76 L474.17 302.08 L474.17 301.41 L474.17 300.74 L474.17 300.07 L474.17 299.39 L474.17 298.72 L474.17 298.05 L474.17 297.38 L474.17 296.70 L474.17 296.03 L474.17 295.36 L474.17 294.69 L474.17 294.01 L474.17 293.34 L474.17 292.67 L474.17 292.00 L474.17 291.32 L474.17 290.65 L474.17 289.98 L474.17 289.31 L474.17 288.63 L474.17 287.96 L474.17 287.29 L474.17 286.62 L474.17 285.94 L474.17 285.27 L474.17 284.60 L474.17 283.93 L474.17 283.25 L474.17 282.58 L474.17 281.91 L474.17 281.24 L474.17 280.56 L474.17 279.89 L474.17 279.22 L474.17 278.55 L474.17 277.87 L474.17 277.20 L474.17 276.53 L474.17 275.86 L474.17 275.18 L474.17 274.51 L474.17 273.84 L474.15 273.17 L474.10 272.49 L474.02 271.82 L473.90 271.15 L473.71 270.48 L473.42 269.80 L473.01 269.13 L472.66 268.72 L471.99 268.18 L471.31 267.80 L470.64 267.53 L469.97 267.37 L469.30 267.27 L468.62 267.19 L467.95 267.13 L467.28 267.13 L466.61 267.13 L465.93 267.13 L465.26 267.13 L464.59 267.13 L463.92 267.13 L463.24 267.13 L462.57 267.13 L461.90 267.13 L461.23 267.13 L460.55 267.13 L459.88 267.13 L459.21 267.13 L458.54 267.13 L457.86 267.13 L457.19 267.13 L456.52 267.13 L455.85 267.13 L455.17 267.13 L454.50 267.13 L453.83 267.13 L453.15 267.13 L452.48 267.13 L451.81 267.13 L451.14 267.13 L450.46 267.13 L449.79 267.13 L449.12 267.13 L448.45 267.13 L447.77 267.13 L447.10 267.13 L446.43 267.13 L445.76 267.13 L445.08 267.13 L444.41 267.13 L443.74 267.13 L443.07 267.13 L442.39 267.13 L441.72 267.13 L441.05 267.13 L440.38 267.13 L439.70 267.13 L439.03 267.13 L438.36 267.13 L437.69 267.13 L437.01 267.13 L436.34 267.13 L435.67 267.13 L435.00 267.13 L434.32 267.13 L433.65 267.13 L432.98 267.13 L432.31 267.13 L431.63 267.13 L430.96 267.13 L430.29 267.13 L429.62 267.13 L428.94 267.13 L428.27 267.13 L427.60 267.13 L426.93 267.13 L426.25 267.13 L425.58 267.13 L424.91 267.13 L424.24 267.13 L423.56 267.13 L422.89 267.13 L422.22 267.13 L421.55 267.13 L420.87 267.13 L420.20 267.13 L419.53 267.13 L418.86 267.13 L418.18 267.16 L417.51 267.19 L416.84 267.23 L416.17 267.33 L415.58 267.45 L415.16 267.53 L414.49 267.74 L413.81 267.97 L413.14 268.24 L412.64 268.46 L412.13 268.69 L411.46 268.96 L411.00 269.13 L410.45 269.33 L409.78 269.57 L409.11 269.76 L408.43 269.93 L407.76 270.10 L407.09 270.29 L406.46 270.48 L405.74 270.74 L405.07 270.98 L404.40 271.29 L403.96 271.49 L403.39 271.77 L402.72 272.08 L402.04 272.42 L401.37 272.78 L400.70 273.15 L400.05 273.50 L399.55 273.84 L399.04 274.18 L398.58 274.51 L398.13 274.85 L397.67 275.23 L397.00 275.76 L396.43 276.19 L395.99 276.51 L395.46 276.87 L394.98 277.18 L394.34 277.54 L393.78 277.87 L393.30 278.13 L392.63 278.53 L391.98 278.88 L391.48 279.22 L390.97 279.56 L390.54 279.89 L390.13 280.23 L389.71 280.56 L389.27 280.96 L388.61 281.57 L387.94 282.25 L387.27 282.92 L386.59 283.59 L385.90 284.24 L385.25 284.94 L384.58 285.61 L383.90 286.28 L383.21 286.93 L382.56 287.63 L381.89 288.30 L381.21 288.97 L380.52 289.62 L379.87 290.32 L379.20 290.99 L378.52 291.66 L377.83 292.31 L377.16 292.99 L376.49 293.66 L375.83 294.35 L375.16 295.02 L374.56 295.70 L374.13 296.18 L373.80 296.63 L373.48 297.04 L373.13 297.55 L372.81 298.05 L372.45 298.64 L372.22 299.06 L371.86 299.73 L371.49 300.40 L371.11 301.05 L370.77 301.58 L370.44 302.06 L370.10 302.54 L369.76 302.97 L369.43 303.41 L368.85 304.10 L368.42 304.65 L368.10 305.11 L367.75 305.62 L367.43 306.12 L367.07 306.71 L366.84 307.13 L366.48 307.80 L366.11 308.47 L365.73 309.12 L365.39 309.65 L365.06 310.13 L364.72 310.61 L364.38 311.04 L364.05 311.48 L363.47 312.17 L363.04 312.72 L362.72 313.18 L362.37 313.69 L362.05 314.19 L361.69 314.78 L361.46 315.20 L361.10 315.87 L360.73 316.54 L360.35 317.19 L360.01 317.72 L359.68 318.20 L359.34 318.68 L359.00 319.11 L358.67 319.55 L358.09 320.24 L357.66 320.80 L357.34 321.25 L356.99 321.76 L356.67 322.26 L356.31 322.85 L356.08 323.27 L355.75 323.94 L355.41 324.61 L355.05 325.29 L354.71 325.96 L354.37 326.63 L354.04 327.30 L353.70 327.98 L353.36 328.65 L353.03 329.32 L352.70 329.99 L352.35 330.67 L352.02 331.34 L351.68 332.01 L351.35 332.68 L351.01 333.36 L350.67 334.03 L350.34 334.70 L350.01 335.37 L349.66 336.05 L349.33 336.72 L348.99 337.39 L348.66 338.06 L348.32 338.74 L347.98 339.41 L347.65 340.08 L347.32 340.75 L346.97 341.43 L346.64 342.10 L346.30 342.77 L345.97 343.44 L345.63 344.12 L345.29 344.79 L344.96 345.46 L344.63 346.13 L344.28 346.81 L343.95 347.48 L343.61 348.15 L343.28 348.82 L342.94 349.50 L342.60 350.17 L342.27 350.84 L341.94 351.51 L341.59 352.19 L341.26 352.86 L340.92 353.53 L340.59 354.20 L340.25 354.88 L339.91 355.55 L339.58 356.22 L339.25 356.89 L338.91 357.57 L338.59 358.24 L338.28 358.91 L337.99 359.58 L337.82 360.02 L337.59 360.59 L337.38 361.27 L337.19 361.94 L337.02 362.61 L336.85 363.28 L336.67 363.96 L336.47 364.59 L336.24 365.30 L335.97 365.97 L335.65 366.65 L335.33 367.32 L335.13 367.74 L334.81 368.33 L334.47 369.00 L334.12 369.64 L333.78 370.31 L333.45 370.98 L333.11 371.66 L332.77 372.33 L332.45 373.04 L332.12 373.71 L331.81 374.38 L331.51 375.05 L331.18 375.73 L330.86 376.40 L330.53 377.07 L330.16 377.74 L329.82 378.42 L329.43 379.09 L329.08 379.68 L328.80 380.10 L328.40 380.60 L327.90 381.11 L327.47 381.44 L327.06 381.68 L326.39 382.00 L326.35 381.44 L326.32 380.77 L326.29 380.10 L326.27 379.42 L326.26 378.75 L326.25 378.08 L326.24 377.41 L326.24 376.73 L326.23 376.06 L326.23 375.39 L326.23 374.72 L326.23 374.04 L326.23 373.37 L326.24 372.70 L326.25 372.03 L326.26 371.35 L326.28 370.68 L326.30 370.01 L326.33 369.34 L326.37 368.66 L327.06 368.14 L327.65 367.65 L328.07 367.15 L328.34 366.65 L328.59 365.97 L328.74 365.39 L328.82 364.96 L328.88 364.29 L328.91 363.62 L328.92 362.95 L328.92 362.27 L328.92 361.60 L328.92 360.93 L328.92 360.26 L328.92 359.58 L328.95 358.91 L328.98 358.24 L329.03 357.57 L329.15 356.89 L329.27 356.22 L329.41 355.68 L329.55 355.21 L329.75 354.67 L329.92 354.20 L330.19 353.53 L330.42 352.99 L330.62 352.52 L330.86 351.85 L331.08 351.18 L331.26 350.51 L331.39 349.83 L331.47 349.16 L331.55 348.49 L331.57 347.82 L331.60 347.14 L331.60 346.47 L331.60 345.80 L331.60 345.13 L331.60 344.45 L331.60 343.78 L331.62 343.11 L331.65 342.44 L331.68 341.76 L331.75 341.09 L331.87 340.42 L332.03 339.75 L332.23 339.07 L332.44 338.44 L332.73 337.73 L333.00 337.06 L333.28 336.38 L333.55 335.71 L333.77 335.04 L333.95 334.37 L334.08 333.69 L334.16 333.02 L334.24 332.35 L334.26 331.68 L334.29 331.00 L334.29 330.33 L334.29 329.66 L334.29 328.99 L334.29 328.31 L334.29 327.64 L334.31 326.97 L334.34 326.30 L334.37 325.62 L334.44 324.95 L334.56 324.28 L334.72 323.61 L334.92 322.93 L335.13 322.30 L335.42 321.59 L335.69 320.92 L335.97 320.24 L336.24 319.57 L336.46 318.90 L336.64 318.23 L336.77 317.55 L336.85 316.88 L336.93 316.21 L336.95 315.54 L336.98 314.86 L336.98 314.19 L336.98 313.52 L336.98 312.85 L336.98 312.17 L336.98 311.50 L337.00 310.83 L337.03 310.15 L337.06 309.48 L337.13 308.81 L337.25 308.14 L337.41 307.46 L337.61 306.79 L337.82 306.16 L338.11 305.45 L338.38 304.77 L338.66 304.10 L338.93 303.43 L339.15 302.76 L339.33 302.08 L339.46 301.41 L339.54 300.74 L339.62 300.07 L339.64 299.39 L339.67 298.72 L339.67 298.05 L339.69 297.38 L339.72 296.70 L339.75 296.03 L339.82 295.36 L339.94 294.69 L340.10 294.01 L340.30 293.34 L340.51 292.71 L340.80 292.00 L341.07 291.32 L341.35 290.65 L341.62 289.98 L341.84 289.31 L342.02 288.63 L342.15 287.96 L342.23 287.29 L342.31 286.62 L342.33 285.94 L342.36 285.27 L342.36 284.60 L342.36 283.93 L342.36 283.25 L342.36 282.58 L342.36 281.91 L342.38 281.24 L342.41 280.56 L342.44 279.89 L342.51 279.22 L342.63 278.55 L342.79 277.87 L342.99 277.20 L343.20 276.57 L343.49 275.86 L343.76 275.18 L344.04 274.51 L344.31 273.84 L344.53 273.17 L344.71 272.49 L344.84 271.82 L344.92 271.15 L345.00 270.48 L345.02 269.80 L345.05 269.13 L345.05 268.46 L345.05 267.79 L345.05 267.11 L345.05 266.44 L345.05 265.77 L345.07 265.10 L345.10 264.42 L345.13 263.75 L345.20 263.08 L345.32 262.41 L345.48 261.73 L345.68 261.06 L345.89 260.43 L346.18 259.72 L346.45 259.04 L346.76 258.37 L347.02 257.70 L347.23 257.08 L347.44 256.35 L347.57 255.77 L347.65 255.35 L347.76 254.67 L347.82 254.00 L348.24 253.97 L348.92 253.94 L349.59 253.91 L350.26 253.90 L350.93 253.90 L351.61 253.91 L352.28 253.93 L352.95 253.96 L353.60 254.00 L353.81 254.67 L354.11 255.35 L354.50 256.02 L354.97 256.63 L355.64 257.31 L356.10 257.70 L356.53 258.04 L356.99 258.32 L357.63 258.71 L358.23 259.04 L358.67 259.27 L359.34 259.64 L360.01 259.95 L360.68 260.28 L361.36 260.59 L362.03 260.89 L362.49 261.06 L363.04 261.26 L363.50 261.40 L364.05 261.55 L364.72 261.66 L365.14 261.73 L365.73 261.80 L366.40 261.85 L367.07 261.89 L367.75 261.89 L368.42 261.90 L369.09 261.90 L369.76 261.90 L370.44 261.90 L371.11 261.90 L371.78 261.90 L372.45 261.90 L373.13 261.90 L373.80 261.90 L374.47 261.90 L375.14 261.90 L375.82 261.90 L376.49 261.90 L377.16 261.90 L377.83 261.90 L378.51 261.90 L379.18 261.90 L379.85 261.90 L380.52 261.90 L381.20 261.90 L381.87 261.90 L382.54 261.90 L383.21 261.90 L383.89 261.90 L384.56 261.90 L385.23 261.90 L385.90 261.90 L386.58 261.90 L387.25 261.90 L387.92 261.90 L388.59 261.90 L389.27 261.90 L389.94 261.90 L390.61 261.90 L391.28 261.90 L391.96 261.90 L392.63 261.90 L393.30 261.90 L393.97 261.90 L394.65 261.90 L395.32 261.90 L395.99 261.90 L396.66 261.90 L397.34 261.90 L398.01 261.90 L398.68 261.90 L399.35 261.90 L400.03 261.90 L400.70 261.90 L401.37 261.90 L402.04 261.90 L402.72 261.90 L403.39 261.90 L404.06 261.90 L404.73 261.90 L405.41 261.90 L406.08 261.90 L406.75 261.92 L407.42 261.92 L408.10 261.92 L408.77 261.92 L409.44 261.92 L410.11 261.93 L410.79 261.94 L411.46 261.96 L412.13 261.96 L412.80 261.99 L413.48 261.99 L414.15 262.02 L414.82 262.02 L415.49 262.05 L416.17 262.05 L416.84 262.05 L417.51 262.05 L418.18 262.05 L418.86 262.05 L419.53 262.05 L420.20 262.05 L420.87 262.05 L421.55 262.05 L422.22 262.05 L422.89 262.05 L423.56 262.05 L424.24 262.05 L424.91 262.05 L425.58 262.05 L426.25 262.05 L426.93 262.05 L427.60 262.05 L428.27 262.05 L428.94 262.05 L429.62 262.05 L430.29 262.05 L430.96 262.05 L431.63 262.05 L432.31 262.05 L432.98 262.05 L433.65 262.05 L434.32 262.05 L435.00 262.05 L435.67 262.05 L436.34 262.05 L437.01 262.05 L437.69 262.05 L438.36 262.05 L439.03 262.05 L439.70 262.05 L440.38 262.05 L441.05 262.05 L441.72 262.05 L442.39 262.05 L443.07 262.05 L443.74 262.05 L444.41 262.05 L445.08 262.05 L445.76 262.05 L446.43 262.05 L447.10 262.05 L447.77 262.05 L448.45 262.05 L449.12 262.05 L449.79 262.05 L450.46 262.05 L451.14 262.05 L451.81 262.05 L452.48 262.05 L453.15 262.05 L453.83 262.05 L454.50 262.05 L455.17 262.05 L455.85 262.05 L456.52 262.05 L457.19 262.05 L457.86 262.05 L458.54 262.05 L459.21 262.05 L459.88 262.05 L460.55 262.05 L461.23 262.05 L461.90 262.05 L462.57 262.05 L463.24 262.05 L463.92 262.05 L464.59 262.05 L465.26 262.05 L465.93 262.05 L466.61 262.05 L467.28 262.05 L467.95 262.05 L468.62 262.05 L469.30 262.05 L469.97 262.05 L470.64 262.05 L471.31 262.02 L471.99 262.02 L472.66 262.02 L473.33 261.99 L474.00 261.97 L474.68 261.96 L475.35 261.94 L476.02 261.94 L476.69 261.92 L477.37 261.92 L478.04 261.92 L478.71 261.92 L479.38 261.92 L480.06 261.90 L480.73 261.90 L481.40 261.90 L482.07 261.90 L482.75 261.90 L483.42 261.90 L484.09 261.90 L484.76 261.90 L485.44 261.90 L486.11 261.90 L486.78 261.90 L487.45 261.90 L488.13 261.90 L488.80 261.90 L489.47 261.90 L490.14 261.90 L490.82 261.90 L491.49 261.90 L492.16 261.90 L492.83 261.90 L493.51 261.90 L494.18 261.90 L494.85 261.90 L495.52 261.90 L496.20 261.90 L496.87 261.90 L497.54 261.90 L498.21 261.90 L498.89 261.90 L499.56 261.90 L500.23 261.90 L500.90 261.90 L501.58 261.90 L502.25 261.90 L502.92 261.90 L503.59 261.90 L504.27 261.90 L504.94 261.90 L505.61 261.90 L506.28 261.90 L506.96 261.90 L507.63 261.90 L508.30 261.90 L508.97 261.90 L509.65 261.90 L510.32 261.90 L510.99 261.90 L511.66 261.90 L512.34 261.90 L513.01 261.90 L513.68 261.90 L514.35 261.90 L515.03 261.90 L515.70 261.90 L516.37 261.90 L517.04 261.90 L517.72 261.90 L518.39 261.90 L519.06 261.90 L519.73 261.90 L520.41 261.90 L521.08 261.90 L521.75 261.90 L522.42 261.90 L523.10 261.90 L523.77 261.90 L524.44 261.90 L525.11 261.90 L525.79 261.90 L526.46 261.90 L527.13 261.90 L527.80 261.90 L528.48 261.90 L529.15 261.90 L529.82 261.90 L530.49 261.90 L531.17 261.90 L531.84 261.90 L532.51 261.90 L533.18 261.90 L533.86 261.90 L534.53 261.90 L535.20 261.90 L535.87 261.90 L536.55 261.90 L537.22 261.90 L537.89 261.90 L538.56 261.90 L539.24 261.90 L539.91 261.90 L540.58 261.90 L541.25 261.90 L541.93 261.90 L542.60 261.90 L543.27 261.90 L543.94 261.90 L544.62 261.92 L545.29 261.92 L545.96 261.92 L546.63 261.92 L547.31 261.94 L547.98 261.94 L548.65 261.96 L549.32 261.96 L550.00 261.99 L550.67 261.99 L551.34 262.02 L552.01 262.02 L552.69 262.05 L553.36 262.05 L554.03 262.05 L554.70 262.05 L555.38 262.05 L556.05 262.05 L556.72 262.05 L557.39 262.05 L558.07 262.05 L558.74 262.05 L559.41 262.05 L560.08 262.05 L560.76 262.05 L561.43 262.05 L562.10 262.05 L562.77 262.05 L563.45 262.05 L564.12 262.05 L564.79 262.05 L565.46 262.05 L566.14 262.05 L566.81 262.05 L567.48 262.05 L568.15 262.05 L568.83 262.05 L569.50 262.05 L570.17 262.05 L570.85 262.05 L571.52 262.05 L572.19 262.05 L572.86 262.05 L573.54 262.05 L574.21 262.05 L574.88 262.05 L575.55 262.05 L576.23 262.05 L576.90 262.05 L577.57 262.05 L578.24 262.05 L578.92 262.05 L579.59 262.05 L580.26 262.05 L580.93 262.05 L581.61 262.05 L582.28 262.05 L582.95 262.05 L583.62 262.05 L584.30 262.05 L584.97 262.05 L585.64 262.05 L586.31 262.05 L586.99 262.05 L587.66 262.05 L588.33 262.05 L589.00 262.05 L589.68 262.05 L590.35 262.05 L591.02 262.05 L591.69 262.05 L592.37 262.05 L593.04 262.05 L593.71 262.05 L594.38 262.05 L595.06 262.05 L595.73 262.05 L596.40 262.05 L597.07 262.05 L597.75 262.05 L598.42 262.05 L599.09 262.05 L599.76 262.05 L600.44 262.05 L601.11 262.05 L601.78 262.05 L602.45 262.05 L603.13 262.05 L603.80 262.05 L604.47 262.05 L605.14 262.05 L605.82 262.05 L606.49 262.05 L607.16 262.05 L607.83 262.05 L608.51 262.02 L609.18 262.02 L609.85 261.99 L610.52 261.99 L611.20 261.97 L611.87 261.96 L612.54 261.94 L613.21 261.94 L613.89 261.92 L614.56 261.92 L615.23 261.92 L615.90 261.92 L616.58 261.92 L617.25 261.90 L617.92 261.90 L618.59 261.90 L619.27 261.90 L619.94 261.90 L620.61 261.90 L621.28 261.90 L621.96 261.90 L622.63 261.90 L623.30 261.90 L623.97 261.90 L624.65 261.90 L625.32 261.90 L625.99 261.90 L626.66 261.90 L627.34 261.90 L628.01 261.90 L628.68 261.90 L629.35 261.90 L630.03 261.90 L630.70 261.90 L631.37 261.90 L632.04 261.90 L632.72 261.90 L633.39 261.90 L634.06 261.90 L634.73 261.90 L635.41 261.90 L636.08 261.90 L636.75 261.90 L637.42 261.90 L638.10 261.90 L638.77 261.90 L639.44 261.90 L640.11 261.90 L640.79 261.90 L641.46 261.90 L642.13 261.90 L642.80 261.90 L643.48 261.90 L644.15 261.90 L644.82 261.90 L645.49 261.90 L646.17 261.90 L646.84 261.90 L647.51 261.90 L648.18 261.90 L648.86 261.90 L649.53 261.90 L650.20 261.90 L650.87 261.90 L651.55 261.90 L652.22 261.90 L652.89 261.90 L653.56 261.89 L654.24 261.86 L654.91 261.83 L655.58 261.78 L656.25 261.66 L656.93 261.55 L657.47 261.40 L657.94 261.26 L658.48 261.06 L658.94 260.89 L659.62 260.59 L660.05 260.39 L660.63 260.13 L661.30 259.79 L661.97 259.46 L662.64 259.12 L663.32 258.81 L663.99 258.48 L664.66 258.14 L665.33 257.78 L666.01 257.44 L666.68 257.07 L667.32 256.69 L667.81 256.35 L668.24 256.02 L668.70 255.58 L669.03 255.15 L669.37 254.70 L669.69 254.00 L670.38 253.96 L671.05 253.93 L671.72 253.91 L672.39 253.90 L673.07 253.90 L673.74 253.91 L674.41 253.92 L675.08 253.95 L675.76 253.99 L675.91 254.67 L676.01 255.35 L676.09 255.77 L676.22 256.35 L676.41 257.03 L676.65 257.70 L676.90 258.37 L677.10 258.81 L677.33 259.38 L677.61 260.05 L677.87 260.73 L678.10 261.40 L678.28 262.07 L678.41 262.74 L678.49 263.42 L678.56 264.09 L678.59 264.76 L678.62 265.43 L678.62 266.11 L678.62 266.78 L678.62 267.45 L678.62 268.12 L678.62 268.80 L678.64 269.47 L678.67 270.14 L678.69 270.81 L678.77 271.49 L678.89 272.16 L679.04 272.83 L679.25 273.50 L679.46 274.13 L679.75 274.85 L680.02 275.52 L680.30 276.19 L680.56 276.87 L680.79 277.54 L680.97 278.21 L681.10 278.88 L681.18 279.56 L681.25 280.23 L681.28 280.90 L681.31 281.57 L681.31 282.25 L681.31 282.92 L681.31 283.59 L681.31 284.26 L681.31 284.94 L681.33 285.61 L681.36 286.28 L681.38 286.95 L681.46 287.63 L681.58 288.30 L681.73 288.97 L681.94 289.64 L682.15 290.27 L682.44 290.99 L682.71 291.66 L682.99 292.33 L683.25 293.01 L683.48 293.68 L683.66 294.35 L683.79 295.02 L683.87 295.70 L683.94 296.37 L683.97 297.04 L684.00 297.71 L684.00 298.39 L684.00 299.06 L684.00 299.73 L684.00 300.40 L684.00 301.08 L684.02 301.75 L684.05 302.42 L684.07 303.09 L684.15 303.77 L684.27 304.44 L684.42 305.11 L684.63 305.78 L684.84 306.41 L685.13 307.13 L685.40 307.80 L685.68 308.47 L685.94 309.15 L686.17 309.82 L686.35 310.49 L686.48 311.16 L686.56 311.84 L686.63 312.51 L686.66 313.18 L686.69 313.85 L686.69 314.53 L686.71 315.20 L686.74 315.87 L686.76 316.54 L686.84 317.22 L686.96 317.89 L687.11 318.56 L687.32 319.23 L687.53 319.86 L687.82 320.58 L688.09 321.25 L688.37 321.92 L688.63 322.60 L688.86 323.27 L689.04 323.94 L689.17 324.61 L689.25 325.29 L689.32 325.96 L689.35 326.63 L689.38 327.30 L689.38 327.98 L689.38 328.65 L689.38 329.32 L689.38 329.99 L689.38 330.67 L689.40 331.34 L689.43 332.01 L689.45 332.68 L689.53 333.36 L689.65 334.03 L689.80 334.70 L690.01 335.37 L690.22 336.00 L690.51 336.72 L690.78 337.39 L691.06 338.06 L691.32 338.74 L691.55 339.41 L691.73 340.08 L691.86 340.75 L691.94 341.43 L692.01 342.10 L692.04 342.77 L692.07 343.44 L692.07 344.12 L692.07 344.79 L692.07 345.46 L692.07 346.13 L692.07 346.81 L692.09 347.48 L692.12 348.15 L692.14 348.82 L692.22 349.50 L692.33 350.17 L692.49 350.84 L692.68 351.51 L692.91 352.15 L693.20 352.86 L693.47 353.53 L693.75 354.20 L693.92 354.67 L694.11 355.21 L694.25 355.68 L694.39 356.22 L694.52 356.89 L694.59 357.32 L694.66 357.90 L694.69 358.58 L694.71 359.25 L694.74 359.92 L694.74 360.59 L694.71 361.27 L694.71 361.94 L694.71 362.61 L694.69 363.28 L694.73 363.96 L694.77 364.63 L694.87 365.30 L695.02 365.97 L695.26 366.60 L695.60 367.15 L695.93 367.57 L696.41 367.99 L696.91 368.33 L697.31 369.00 L697.35 369.67 L697.37 370.35 L697.39 371.02 L697.41 371.69 L697.42 372.36 L697.43 373.04 L697.43 373.71 L697.43 374.38 L697.43 375.05 L697.43 375.73 L697.43 376.40 L697.42 377.07 L697.42 377.74 L697.41 378.42 L697.40 379.09 L697.38 379.76 L697.36 380.43 L697.33 381.11 L697.29 381.78 L696.77 381.78 L696.27 381.50 L695.76 381.11 L695.26 380.60 L694.92 380.17 L694.64 379.76 L694.25 379.12 L693.92 378.56 L693.66 378.08 L693.32 377.41 L692.98 376.73 L692.65 376.06 L692.31 375.39 L692.00 374.72 L691.70 374.04 L691.38 373.37 L691.07 372.70 L690.89 372.26 L690.64 371.69 L690.37 371.02 L690.11 370.35 L689.90 369.67 L689.71 369.00 L689.54 368.38 L689.36 367.65 L689.21 367.15 L689.06 366.65 L688.87 366.10 L688.70 365.64 L688.42 364.96 L688.20 364.53 L687.94 363.96 L687.61 363.28 L687.27 362.61 L686.94 361.94 L686.59 361.27 L686.27 360.59 L685.92 359.92 L685.59 359.25 L685.25 358.58 L684.91 357.90 L684.58 357.23 L684.24 356.56 L683.90 355.89 L683.58 355.21 L683.24 354.54 L682.92 353.87 L682.61 353.20 L682.31 352.52 L682.15 352.09 L681.92 351.51 L681.70 350.84 L681.52 350.17 L681.35 349.50 L681.18 348.82 L681.01 348.15 L680.82 347.48 L680.57 346.81 L680.30 346.13 L680.00 345.46 L679.79 344.99 L679.53 344.45 L679.20 343.78 L678.86 343.11 L678.52 342.44 L678.20 341.76 L677.85 341.09 L677.52 340.42 L677.18 339.75 L676.84 339.07 L676.51 338.40 L676.17 337.73 L675.83 337.06 L675.51 336.38 L675.16 335.71 L674.82 335.04 L674.49 334.37 L674.15 333.69 L673.82 333.02 L673.48 332.35 L673.14 331.68 L672.82 331.00 L672.47 330.33 L672.13 329.66 L671.80 328.99 L671.46 328.31 L671.13 327.64 L670.79 326.97 L670.45 326.30 L670.09 325.62 L669.70 324.98 L669.37 324.45 L669.03 323.97 L668.70 323.49 L668.36 323.05 L668.02 322.62 L667.44 321.92 L667.01 321.37 L666.70 320.92 L666.34 320.41 L666.02 319.91 L665.67 319.32 L665.44 318.90 L665.10 318.23 L664.77 317.55 L664.41 316.88 L664.06 316.21 L663.73 315.54 L663.39 314.86 L663.06 314.19 L662.72 313.52 L662.38 312.85 L662.02 312.17 L661.63 311.53 L661.30 311.00 L660.96 310.52 L660.63 310.03 L660.29 309.60 L659.95 309.17 L659.37 308.47 L658.94 307.92 L658.62 307.46 L658.27 306.96 L657.95 306.46 L657.60 305.87 L657.37 305.45 L657.00 304.77 L656.64 304.10 L656.25 303.46 L655.92 302.93 L655.58 302.45 L655.25 302.01 L654.91 301.56 L654.48 301.08 L653.90 300.42 L653.23 299.75 L652.57 299.06 L651.94 298.39 L651.55 297.94 L651.06 297.38 L650.55 296.70 L650.20 296.20 L649.88 295.70 L649.53 295.11 L649.30 294.69 L648.93 294.01 L648.57 293.34 L648.18 292.70 L647.85 292.17 L647.51 291.68 L647.18 291.25 L646.84 290.80 L646.41 290.32 L645.83 289.66 L645.16 288.99 L644.50 288.30 L643.83 287.63 L643.16 286.95 L642.47 286.30 L641.80 285.63 L641.12 284.95 L640.47 284.26 L639.78 283.61 L639.11 282.94 L638.43 282.26 L637.76 281.59 L637.09 280.96 L636.65 280.56 L636.23 280.23 L635.81 279.89 L635.41 279.57 L634.87 279.22 L634.40 278.90 L633.76 278.55 L633.15 278.21 L632.72 277.98 L632.04 277.61 L631.37 277.29 L630.70 276.94 L630.03 276.61 L629.35 276.27 L628.68 275.93 L628.01 275.60 L627.34 275.26 L626.66 274.92 L625.99 274.60 L625.32 274.25 L624.65 273.92 L623.97 273.58 L623.30 273.24 L622.63 272.91 L621.96 272.57 L621.28 272.23 L620.61 271.93 L619.94 271.59 L619.27 271.29 L618.59 270.98 L618.13 270.81 L617.58 270.61 L616.91 270.38 L616.24 270.19 L615.57 270.01 L614.89 269.85 L614.22 269.65 L613.59 269.47 L612.88 269.21 L612.20 268.96 L611.53 268.69 L611.03 268.46 L610.52 268.24 L609.85 267.97 L609.30 267.79 L608.84 267.64 L608.17 267.47 L607.50 267.33 L606.82 267.23 L606.15 267.19 L605.48 267.16 L604.81 267.13 L604.13 267.13 L603.46 267.13 L602.79 267.13 L602.12 267.13 L601.44 267.13 L600.77 267.13 L600.10 267.13 L599.43 267.13 L598.75 267.13 L598.08 267.13 L597.41 267.13 L596.74 267.13 L596.06 267.13 L595.39 267.13 L594.72 267.13 L594.05 267.13 L593.37 267.13 L592.70 267.13 L592.03 267.13 L591.36 267.13 L590.68 267.13 L590.01 267.13 L589.34 267.13 L588.67 267.13 L587.99 267.13 L587.32 267.13 L586.65 267.13 L585.98 267.13 L585.30 267.13 L584.63 267.13 L583.96 267.13 L583.29 267.13 L582.61 267.13 L581.94 267.13 L581.27 267.13 L580.60 267.13 L579.92 267.13 L579.25 267.13 L578.58 267.13 L577.91 267.13 L577.23 267.13 L576.56 267.13 L575.89 267.13 L575.22 267.13 L574.54 267.13 L573.87 267.13 L573.20 267.13 L572.53 267.13 L571.85 267.13 L571.18 267.13 L570.51 267.13 L569.84 267.13 L569.16 267.13 L568.49 267.13 L567.82 267.13 L567.15 267.13 L566.47 267.13 L565.80 267.13 L565.13 267.13 L564.46 267.13 L563.78 267.13 L563.11 267.13 L562.44 267.13 L561.77 267.13 L561.09 267.13 L560.42 267.13 L559.75 267.13 L559.08 267.13 L558.40 267.13 L557.73 267.13 L557.06 267.13 L556.39 267.13 L555.71 267.13 L555.04 267.19 L554.37 267.27 L553.70 267.37 L553.02 267.53 L552.39 267.79 L551.76 268.12 L551.34 268.44 L550.67 269.11 L550.33 269.64 L550.08 270.14 L549.83 270.81 L549.68 271.49 L549.59 272.16 L549.54 272.83 L549.51 273.50 L549.49 274.18 L549.49 274.85 L549.49 275.52 L549.49 276.19 L549.49 276.87 L549.49 277.54 L549.49 278.21 L549.49 278.88 L549.49 279.56 L549.49 280.23 L549.49 280.90 L549.49 281.57 L549.49 282.25 L549.49 282.92 L549.49 283.59 L549.49 284.26 L549.49 284.94 L549.49 285.61 L549.49 286.28 L549.49 286.95 L549.49 287.63 L549.49 288.30 L549.49 288.97 L549.49 289.64 L549.49 290.32 L549.49 290.99 L549.49 291.66 L549.49 292.33 L549.49 293.01 L549.49 293.68 L549.49 294.35 L549.49 295.02 L549.49 295.70 L549.49 296.37 L549.49 297.04 L549.49 297.71 L549.49 298.39 L549.49 299.06 L549.49 299.73 L549.49 300.40 L549.49 301.08 L549.49 301.75 L549.49 302.42 L549.49 303.09 L549.49 303.77 L549.49 304.44 L549.49 305.11 L549.49 305.78 L549.49 306.46 L549.49 307.13 L549.49 307.80 L549.49 308.47 L549.49 309.15 L549.49 309.82 L549.49 310.49 L549.49 311.16 L549.49 311.84 L549.49 312.51 L549.49 313.18 L549.49 313.85 L549.49 314.53 L549.49 315.20 L549.49 315.87 L549.49 316.54 L549.49 317.22 L549.49 317.89 L549.49 318.56 L549.49 319.23 L549.49 319.91 L549.49 320.58 L549.49 321.25 L549.49 321.92 L549.49 322.60 L549.49 323.27 L549.49 323.94 L549.49 324.61 L549.49 325.29 L549.49 325.96 L549.49 326.63 L549.49 327.30 L549.49 327.98 L549.49 328.65 L549.49 329.32 L549.49 329.99 L549.49 330.67 L549.49 331.34 L549.49 332.01 L549.49 332.68 L549.49 333.36 L549.49 334.03 L549.49 334.70 L549.49 335.37 L549.49 336.05 L549.49 336.72 L549.49 337.39 L549.49 338.06 L549.49 338.74 L549.49 339.41 L549.49 340.08 L549.49 340.75 L549.49 341.43 L549.49 342.10 L549.49 342.77 L549.49 343.44 L549.49 344.12 L549.49 344.79 L549.49 345.46 L549.49 346.13 L549.49 346.81 L549.49 347.48 L549.49 348.15 L549.49 348.82 L549.49 349.50 L549.49 350.17 L549.49 350.84 L549.49 351.51 L549.49 352.19 L549.49 352.86 L549.49 353.53 L549.49 354.20 L549.49 354.88 L549.49 355.55 L549.49 356.22 L549.49 356.89 L549.49 357.57 L549.49 358.24 L549.49 358.91 L549.49 359.58 L549.49 360.26 L549.49 360.93 L549.49 361.60 L549.49 362.27 L549.49 362.95 L549.49 363.62 L549.49 364.29 L549.49 364.96 L549.49 365.64 L549.49 366.31 L549.49 366.98 L549.49 367.65 L549.49 368.33 L549.49 369.00 L549.49 369.67 L549.49 370.35 L549.49 371.02 L549.49 371.69 L549.49 372.36 L549.49 373.04 L549.49 373.71 L549.49 374.38 L549.49 375.05 L549.49 375.73 L549.49 376.40 L549.49 377.07 L549.49 377.74 L549.49 378.42 L549.49 379.09 L549.49 379.76 L549.49 380.43 L549.49 381.11 L549.49 381.78 L549.49 382.45 L549.49 383.12 L549.49 383.80 L549.49 384.47 L549.49 385.14 L549.49 385.81 L549.49 386.49 L549.49 387.16 L549.49 387.83 L549.49 388.50 L549.49 389.18 L549.49 389.85 L549.49 390.52 L549.49 391.19 L549.49 391.87 L549.49 392.54 L549.49 393.21 L549.49 393.88 L549.49 394.56 L549.49 395.23 L549.49 395.90 L549.49 396.57 L549.49 397.25 L549.49 397.92 L549.49 398.59 L549.49 399.26 L549.49 399.94 L549.49 400.61 L549.49 401.28 L549.49 401.95 L549.49 402.63 L549.49 403.30 L549.49 403.97 L549.49 404.64 L549.49 405.32 L549.49 405.99 L549.49 406.66 L549.49 407.33 L549.49 408.01 L549.49 408.68 L549.49 409.35 L549.49 410.02 L549.49 410.70 L549.49 411.37 L549.49 412.04 L549.49 412.71 L549.49 413.39 L549.49 414.06 L549.49 414.73 L549.49 415.40 L549.49 416.08 L549.49 416.75 L549.49 417.42 L549.49 418.09 L549.49 418.77 L549.49 419.44 L549.49 420.11 L549.49 420.78 L549.49 421.46 L549.49 422.13 L549.49 422.80 L549.49 423.47 L549.49 424.15 L549.49 424.82 L549.49 425.49 L549.49 426.16 L549.49 426.84 L549.49 427.51 L549.49 428.18 L549.49 428.85 L549.49 429.53 L549.49 430.20 L549.49 430.87 L549.49 431.54 L549.49 432.22 L549.49 432.89 L549.49 433.56 L549.49 434.23 L549.49 434.91 L549.49 435.58 L549.49 436.25 L549.49 436.92 L549.49 437.60 L549.49 438.27 L549.49 438.94 L549.49 439.61 L549.49 440.29 L549.49 440.96 L549.49 441.63 L549.49 442.30 L549.49 442.98 L549.49 443.65 L549.49 444.32 L549.49 444.99 L549.49 445.67 L549.49 446.34 L549.49 447.01 L549.49 447.68 L549.49 448.36 L549.49 449.03 L549.49 449.70 L549.49 450.37 L549.49 451.05 L549.49 451.72 L549.49 452.39 L549.49 453.06 L549.49 453.74 L549.49 454.41 L549.49 455.08 L549.49 455.75 L549.49 456.43 L549.49 457.10 L549.49 457.77 L549.49 458.44 L549.49 459.12 L549.49 459.79 L549.49 460.46 L549.49 461.13 L549.49 461.81 L549.49 462.48 L549.49 463.15 L549.49 463.82 L549.49 464.50 L549.49 465.17 L549.49 465.84 L549.49 466.51 L549.49 467.19 L549.49 467.86 L549.49 468.53 L549.49 469.20 L549.49 469.88 L549.49 470.55 L549.49 471.22 L549.49 471.89 L549.49 472.57 L549.49 473.24 L549.49 473.91 L549.49 474.58 L549.49 475.26 L549.49 475.93 L549.49 476.60 L549.49 477.27 L549.49 477.95 L549.49 478.62 L549.49 479.29 L549.49 479.96 L549.49 480.64 L549.49 481.31 L549.49 481.98 L549.49 482.65 L549.49 483.33 L549.49 484.00 L549.49 484.67 L549.49 485.35 L549.49 486.02 L549.49 486.69 L549.49 487.36 L549.49 488.04 L549.49 488.71 L549.49 489.38 L549.49 490.05 L549.49 490.73 L549.49 491.40 L549.49 492.07 L549.49 492.74 L549.49 493.42 L549.49 494.09 L549.49 494.76 L549.49 495.43 L549.49 496.11 L549.49 496.78 L549.49 497.45 L549.49 498.12 L549.49 498.80 L549.49 499.47 L549.49 500.14 L549.49 500.81 L549.49 501.49 L549.49 502.16 L549.49 502.83 L549.49 503.50 L549.49 504.18 L549.49 504.85 L549.49 505.52 L549.49 506.19 L549.49 506.87 L549.49 507.54 L549.49 508.21 L549.49 508.88 L549.49 509.56 L549.49 510.23 L549.49 510.90 L549.49 511.57 L549.49 512.25 L549.49 512.92 L549.49 513.59 L549.49 514.26 L549.49 514.94 L549.49 515.61 L549.49 516.28 L549.49 516.95 L549.49 517.63 L549.49 518.30 L549.49 518.97 L549.49 519.64 L549.49 520.32 L549.49 520.99 L549.49 521.66 L549.49 522.33 L549.49 523.01 L549.49 523.68 L549.49 524.35 L549.49 525.02 L549.49 525.70 L549.49 526.37 L549.49 527.04 L549.49 527.71 L549.49 528.39 L549.49 529.06 L549.49 529.73 L549.49 530.40 L549.49 531.08 L549.49 531.75 L549.49 532.42 L549.49 533.09 L549.49 533.77 L549.49 534.44 L549.49 535.11 L549.49 535.78 L549.49 536.46 L549.49 537.13 L549.49 537.80 L549.49 538.47 L549.49 539.15 L549.49 539.82 L549.49 540.49 L549.49 541.16 L549.49 541.84 L549.49 542.51 L549.49 543.18 L549.49 543.85 L549.49 544.53 L549.49 545.20 L549.49 545.87 L549.49 546.54 L549.49 547.22 L549.49 547.89 L549.49 548.56 L549.49 549.23 L549.49 549.91 L549.49 550.58 L549.49 551.25 L549.49 551.92 L549.49 552.60 L549.49 553.27 L549.49 553.94 L549.49 554.61 L549.49 555.29 L549.49 555.96 L549.49 556.63 L549.49 557.30 L549.49 557.98 L549.49 558.65 L549.49 559.32 L549.49 559.99 L549.49 560.67 L549.49 561.34 L549.49 562.01 L549.49 562.68 L549.49 563.36 L549.49 564.03 L549.49 564.70 L549.49 565.37 L549.49 566.05 L549.49 566.72 L549.49 567.39 L549.49 568.06 L549.49 568.74 L549.49 569.41 L549.49 570.08 L549.49 570.75 L549.49 571.43 L549.49 572.10 L549.49 572.77 L549.49 573.44 L549.49 574.12 L549.49 574.79 L549.49 575.46 L549.49 576.13 L549.49 576.81 L549.49 577.48 L549.49 578.15 L549.49 578.82 L549.49 579.50 L549.49 580.17 L549.49 580.84 L549.49 581.51 L549.49 582.19 L549.49 582.86 L549.49 583.53 L549.49 584.20 L549.49 584.88 L549.49 585.55 L549.49 586.22 L549.49 586.89 L549.49 587.57 L549.49 588.24 L549.49 588.91 L549.49 589.58 L549.49 590.26 L549.49 590.93 L549.49 591.60 L549.49 592.27 L549.49 592.95 L549.49 593.62 L549.49 594.29 L549.49 594.96 L549.49 595.64 L549.49 596.31 L549.49 596.98 L549.49 597.65 L549.49 598.33 L549.49 599.00 L549.49 599.67 L549.49 600.35 L549.49 601.02 L549.49 601.69 L549.49 602.36 L549.49 603.04 L549.49 603.71 L549.49 604.38 L549.49 605.05 L549.49 605.73 L549.49 606.40 L549.49 607.07 L549.49 607.74 L549.49 608.42 L549.49 609.09 L549.49 609.76 L549.49 610.43 L549.49 611.11 L549.49 611.78 L549.49 612.45 L549.49 613.12 L549.49 613.80 L549.49 614.47 L549.49 615.14 L549.49 615.81 L549.49 616.49 L549.49 617.16 L549.49 617.83 L549.49 618.50 L549.49 619.18 L549.49 619.85 L549.49 620.52 L549.49 621.19 L549.49 621.87 L549.49 622.54 L549.49 623.21 L549.49 623.88 L549.49 624.56 L549.49 625.23 L549.49 625.90 L549.49 626.57 L549.49 627.25 L549.49 627.92 L549.49 628.59 L549.49 629.26 L549.49 629.94 L549.49 630.61 L549.49 631.28 L549.49 631.95 L549.49 632.63 L549.49 633.30 L549.49 633.97 L549.49 634.64 L549.49 635.32 L549.49 635.99 L549.49 636.66 L549.49 637.33 L549.49 638.01 L549.49 638.68 L549.49 639.35 L549.49 640.02 L549.49 640.70 L549.49 641.37 L549.49 642.04 L549.49 642.71 L549.49 643.39 L549.49 644.06 L549.49 644.73 L549.49 645.40 L549.49 646.08 L549.49 646.75 L549.49 647.42 L549.49 648.09 L549.49 648.77 L549.49 649.44 L549.49 650.11 L549.49 650.78 L549.49 651.46 L549.49 652.13 L549.49 652.80 L549.49 653.47 L549.49 654.15 L549.49 654.82 L549.49 655.49 L549.49 656.16 L549.49 656.84 L549.49 657.51 L549.49 658.18 L549.49 658.85 L549.49 659.53 L549.49 660.20 L549.49 660.87 L549.49 661.54 L549.49 662.22 L549.49 662.89 L549.49 663.56 L549.49 664.23 L549.49 664.91 L549.49 665.58 L549.49 666.25 L549.49 666.92 L549.49 667.60 L549.49 668.27 L549.49 668.94 L549.49 669.61 L549.49 670.29 L549.49 670.96 L549.49 671.63 L549.49 672.30 L549.49 672.98 L549.49 673.65 L549.49 674.32 L549.49 674.99 L549.49 675.67 L549.49 676.34 L549.49 677.01 L549.49 677.68 L549.49 678.36 L549.49 679.03 L549.49 679.70 L549.49 680.37 L549.49 681.05 L549.49 681.72 L549.49 682.39 L549.49 683.06 L549.49 683.74 L549.49 684.41 L549.49 685.08 L549.49 685.75 L549.49 686.43 L549.49 687.10 L549.49 687.77 L549.49 688.44 L549.49 689.12 L549.49 689.79 L549.49 690.46 L549.49 691.13 L549.49 691.81 L549.49 692.48 L549.49 693.15 L549.49 693.82 L549.52 694.50 L549.54 695.17 L549.57 695.84 L549.65 696.51 L549.77 697.19 L549.95 697.86 L550.18 698.53 L550.50 699.20 L550.89 699.88 L551.34 700.44 L551.74 700.89 L552.35 701.44 L552.95 701.89 L553.36 702.18 L554.00 702.57 L554.62 702.90 L555.04 703.13 L555.71 703.50 L556.39 703.81 L557.06 704.14 L557.73 704.45 L558.40 704.75 L558.87 704.92 L559.41 705.12 L559.87 705.26 L560.42 705.41 L561.09 705.52 L561.51 705.59 L562.10 705.66 L562.77 705.71 L563.45 705.75 L564.12 705.75 L564.79 705.78 L565.46 705.80 L566.14 705.83 L566.81 705.89 L567.48 706.00 L568.15 706.11 L568.77 706.27 L569.50 706.50 L570.17 706.77 L570.61 706.94 L571.18 707.17 L571.85 707.44 L572.29 707.61 L572.86 707.81 L573.54 708.02 L574.21 708.16 L574.88 708.27 L575.55 708.35 L576.23 708.40 L576.90 708.44 L577.57 708.44 L578.24 708.45 L578.92 708.45 L579.59 708.45 L580.26 708.45 L580.93 708.47 L581.61 708.49 L582.28 708.52 L582.95 708.58 L583.62 708.69 L584.30 708.80 L584.91 708.96 L585.64 709.19 L586.31 709.46 L586.75 709.63 L587.32 709.91 L587.99 710.25 L588.67 710.59 L589.31 710.97 L589.80 711.31 L590.23 711.65 L590.68 712.10 L591.02 712.51 L591.34 712.99 L591.64 713.66 Z" fill="#F2EBD9"/>

  <!-- Orange accent line -->
  <rect x="312" y="754.00" width="400" height="9"
        rx="1.5" ry="1.5" fill="#E89A2C"/>
</svg>
